<svg xmlns="http://www.w3.org/2000/svg" width="720" height="720" viewBox="0 0 720 720"><path fill="#FBDE34" d="M39.327 13.743h504.67v504.5H39.327z"/><path fill="#343433" d="M303.45 335.518l38.565-22.33c10.152 16.58 23.346 28.76 46.688 28.76 19.624 0 32.14-9.813 32.14-23.346 0-16.24-12.855-21.99-34.508-31.462l-11.84-5.077c-34.17-14.546-56.84-32.814-56.84-71.383 0-35.523 27.066-62.59 69.357-62.59 30.11 0 51.762 10.49 67.322 37.893l-36.877 23.682c-8.12-14.546-16.913-20.298-30.445-20.298-13.87 0-22.668 8.797-22.668 20.298 0 14.21 8.797 19.962 29.094 28.76l11.84 5.073c40.26 17.255 62.928 34.846 62.928 74.427 0 42.63-33.492 65.972-78.487 65.972-43.982 0-72.402-20.975-86.27-48.38M115.117 150.257h160.015v44.238h-114.23v48.387H261.26v43.256H160.903v50.37h115.77v45.222H115.117V150.257z"/></svg>