<svg xmlns="http://www.w3.org/2000/svg" width="289.333" height="122.833" viewBox="0 0 289.333 122.833"><path fill="#FFF" d="M0 0h289.333v122.833H0z"/><circle cx="68.721" cy="59.184" r="39.185"/><path fill="#FFF" d="M85.853 34.5c-3.98.135-7.456 2.33-10.042 5.364-2.862 3.33-4.768 7.275-6.14 11.304-2.456-2.01-4.35-4.618-8.29-5.75-3.045-.877-6.244-.516-9.185 1.676-1.393 1.04-2.354 2.612-2.81 4.093-1.18 3.842 1.242 7.263 2.344 8.49l2.408 2.58c.496.506 1.692 1.826 1.108 3.72-.63 2.058-3.112 3.388-5.656 2.604-1.137-.35-2.768-1.194-2.403-2.386.15-.486.5-.854.69-1.27.168-.362.252-.636.304-.798.466-1.514-.17-3.488-1.794-3.99-1.517-.465-3.067-.096-3.67 1.854-.682 2.22.38 6.245 6.066 7.997 6.66 2.047 12.295-1.58 13.094-6.31.505-2.96-.835-5.164-3.283-7.994l-1.998-2.21c-1.21-1.207-1.625-3.267-.373-4.85 1.056-1.336 2.56-1.905 5.025-1.235 3.597.976 5.2 3.472 7.874 5.485-1.102 3.624-1.824 7.26-2.477 10.52l-.4 2.43c-1.913 10.03-3.373 15.54-7.167 18.7-.764.545-1.858 1.36-3.505 1.416-.863.026-1.14-.57-1.152-.827-.02-.604.49-.883.83-1.156.507-.277 1.274-.736 1.22-2.203-.054-1.736-1.493-3.242-3.57-3.174-1.558.05-3.93 1.516-3.842 4.2.093 2.772 2.674 4.85 6.57 4.716 2.08-.07 6.73-.914 11.31-6.363C72.268 74.89 73.76 67.735 74.88 62.5l1.253-6.918c.693.085 1.438.143 2.247.16 6.642.142 9.962-3.296 10.013-5.8.032-1.513-.994-3.005-2.433-2.968-1.027.028-2.318.713-2.63 2.135-.302 1.394 2.114 2.654.227 3.878-1.34.868-3.747 1.48-7.133.983l.615-3.402c1.255-6.456 2.806-14.394 8.688-14.59.43-.02 1.996.02 2.033 1.057.01.346-.076.438-.48 1.23-.414.617-.57 1.144-.55 1.748.057 1.647 1.31 2.73 3.124 2.667 2.426-.08 3.124-2.44 3.083-3.656-.1-2.854-3.107-4.657-7.084-4.525z"/><g><path d="M209.924 51.202c5.64 0 9.424 4.075 9.424 9.714 0 5.312-3.857 9.715-9.424 9.715-5.6 0-9.46-4.4-9.46-9.714 0-5.64 3.782-9.714 9.46-9.714zm0 16.665c3.998 0 5.785-3.64 5.785-6.95 0-3.53-2.15-6.95-5.786-6.95-3.674 0-5.82 3.42-5.82 6.95 0 3.312 1.78 6.95 5.82 6.95zM199.996 52.93v-1.293h-4.914v-1.765c0-2.51.365-4.403 3.31-4.403.056 0 .112.002.17.005.007 0 .005-.01.013-.01.818.062 1.496-.606 1.54-1.423l.062-1.12c-.69-.11-1.422-.22-2.29-.22-5.062 0-6.224 2.948-6.224 7.462v1.472h-4.365v1.442c.11.747.748 1.32 1.53 1.32.003 0 .007.004.01.004h2.825v15.792h1.885c.004 0 .002-.002.006-.002.78 0 1.424-.586 1.53-1.34v-14.45h3.42c.807-.024 1.453-.668 1.492-1.473zM154.436 51.637c-.006 0-.01.004-.018.004-.72 0-1.418.498-1.725 1.166l-4.703 14.186h-.074l-4.603-14.178c-.302-.672-1.002-1.172-1.73-1.172-.006 0-.006-.004-.014-.004h-2.388l6.296 17.32c.217.62.654 1.566.654 1.967 0 .363-1.018 4.58-4.075 4.58-.078 0-.15-.006-.228-.01-.78-.04-1.372.5-1.502 1.342l-.09 1.184c.617.11 1.24.255 2.33.255 4.51 0 5.855-4.115 7.133-7.678l6.84-18.958h-2.104zM132.69 55.408c-2.823-1.445-5.914-2.427-5.968-5.335.008-3.09 2.847-3.9 5.033-3.897h.024c.95 0 1.707.094 2.45.256.01 0 .01-.01.02-.01.784.055 1.44-.557 1.535-1.33l.062-1.122c-1.433-.355-2.933-.537-4.235-.537-4.757.03-8.287 2.422-8.298 6.987.006 3.992 2.698 5.538 5.59 6.94 2.836 1.364 5.946 2.49 5.974 5.782-.018 3.44-3.334 4.71-5.62 4.713-1.336-.002-2.788-.338-4.013-.73-.765-.124-1.393.554-1.49 1.45l-.105 1c1.68.545 3.405 1.016 5.136 1.016h.022c5.327-.038 9.466-2.16 9.48-7.68-.005-4.25-2.717-6.038-5.597-7.502zM184.426 70.195l.004-.002c.74 0 1.354-.518 1.512-1.21V58.298c0-4.04-1.71-7.096-6.445-7.096-1.672 0-4.473.95-5.744 3.605-.984-2.513-3.133-3.604-5.277-3.604-2.727 0-4.584.983-5.896 3.13h-.07v-1.154c-.012-.85-.697-1.535-1.55-1.535-.007 0-.01-.003-.017-.003h-1.64v18.558h1.856s0-.002.003-.002c.857 0 1.55-.693 1.55-1.553 0-.02.01-.03.015-.047v-7.748c0-3.458 1.385-6.88 4.873-6.88 2.767 0 3.315 2.876 3.315 5.168v11.062h1.877c.002 0 .002-.002.006-.002.81 0 1.463-.623 1.537-1.41v-7.938c0-3.458 1.383-6.88 4.877-6.88 2.762 0 3.307 2.876 3.307 5.168v11.062h1.906zM237.277 70.195l.008-.002c.834 0 1.504-.66 1.54-1.48v-9.54c0-4.986-2.144-7.97-6.95-7.97-2.578 0-5.053 1.273-6.072 3.385h-.072V53.2s-.003 0-.003-.005c0-.858-.695-1.554-1.55-1.554-.01 0-.013-.003-.02-.003h-1.743v18.558h1.883s0-.002.006-.002c.81 0 1.47-.63 1.533-1.43v-7.156c0-4.51 1.752-7.64 5.643-7.64 2.983.182 3.93 2.29 3.93 6.62v9.607h1.867zM255.69 51.637c-.005 0-.01.004-.015.004-.72 0-1.422.498-1.725 1.166l-4.703 14.186h-.08l-4.602-14.178c-.3-.672-1.002-1.172-1.725-1.172-.008 0-.012-.004-.018-.004h-2.385l6.295 17.32c.217.62.656 1.566.656 1.967 0 .363-1.02 4.58-4.078 4.58-.074 0-.152-.006-.227-.01-.777-.04-1.367.5-1.498 1.342l-.094 1.184c.62.11 1.24.255 2.33.255 4.515 0 5.86-4.115 7.134-7.678l6.84-18.958h-2.103z"/></g></svg>