<?xml version="1.0" encoding="UTF-8" standalone="no"?>
<svg
   xmlns:dc="http://purl.org/dc/elements/1.1/"
   xmlns:cc="http://creativecommons.org/ns#"
   xmlns:rdf="http://www.w3.org/1999/02/22-rdf-syntax-ns#"
   xmlns:svg="http://www.w3.org/2000/svg"
   xmlns="http://www.w3.org/2000/svg"
   xmlns:sodipodi="http://sodipodi.sourceforge.net/DTD/sodipodi-0.dtd"
   xmlns:inkscape="http://www.inkscape.org/namespaces/inkscape"
   width="236.83435"
   height="435.24014"
   id="svg2"
   version="1.1"
   inkscape:version="0.47 r22583"
   sodipodi:docname="Flag_of_Togo.svg">
  <metadata
     id="metadata14">
    <rdf:RDF>
      <cc:Work
         rdf:about="">
        <dc:format>image/svg+xml</dc:format>
        <dc:type
           rdf:resource="http://purl.org/dc/dcmitype/StillImage" />
      </cc:Work>
    </rdf:RDF>
  </metadata>
  <defs
     id="defs12">
    <inkscape:perspective
       sodipodi:type="inkscape:persp3d"
       inkscape:vp_x="0 : 300 : 1"
       inkscape:vp_y="0 : 1000 : 0"
       inkscape:vp_z="900 : 300 : 1"
       inkscape:persp3d-origin="450 : 200 : 1"
       id="perspective16" />
    <inkscape:perspective
       id="perspective3918"
       inkscape:persp3d-origin="0.5 : 0.33333333 : 1"
       inkscape:vp_z="1 : 0.5 : 1"
       inkscape:vp_y="0 : 1000 : 0"
       inkscape:vp_x="0 : 0.5 : 1"
       sodipodi:type="inkscape:persp3d" />
    <inkscape:perspective
       id="perspective2824"
       inkscape:persp3d-origin="0.5 : 0.33333333 : 1"
       inkscape:vp_z="1 : 0.5 : 1"
       inkscape:vp_y="0 : 1000 : 0"
       inkscape:vp_x="0 : 0.5 : 1"
       sodipodi:type="inkscape:persp3d" />
    <inkscape:perspective
       id="perspective2837"
       inkscape:persp3d-origin="0.5 : 0.33333333 : 1"
       inkscape:vp_z="1 : 0.5 : 1"
       inkscape:vp_y="0 : 1000 : 0"
       inkscape:vp_x="0 : 0.5 : 1"
       sodipodi:type="inkscape:persp3d" />
  </defs>
  <sodipodi:namedview
     pagecolor="#ffffff"
     bordercolor="#666666"
     borderopacity="1"
     objecttolerance="10"
     gridtolerance="10"
     guidetolerance="10"
     inkscape:pageopacity="0"
     inkscape:pageshadow="2"
     inkscape:window-width="1280"
     inkscape:window-height="1004"
     id="namedview10"
     showgrid="false"
     inkscape:zoom="1.1125147"
     inkscape:cx="131.72344"
     inkscape:cy="229.89178"
     inkscape:window-x="-8"
     inkscape:window-y="-8"
     inkscape:window-maximized="1"
     inkscape:current-layer="svg2" />
  <path
     style="fill:#de1018;stroke:#de1018;stroke-width:2.4000001;stroke-miterlimit:4;stroke-opacity:1;stroke-dasharray:none"
     d="m 74.60605,1.2002 -2,0.625 -0.0312,0 -0.78125,0.8125 -0.0312,0.03125 -1.21875,2.0625 -0.0312,0.03125 -0.0312,0 -2.28125,0 0,-0.03125 -2.0625,0.65625 -0.0312,0 -1.25,-0.21875 -2.0625,-0.625 -0.0312,0 -2.15625,-0.375 1.1875,2.1875 1.25,2.0625 0,0.03125 0,0.03125 -0.84375,2.0625 0,0.03125 -1.65625,1.25 -0.0312,0 -2.09375,0.40625 -2.28125,0.625 -0.0312,0 -2.0625,-1.4375 -0.0312,0 -2.21875,-0.21875 -0.0312,0 -0.4375,0.21875 -2.03125,1.40625 -0.625,2.09375 -0.21875,0.625 -0.21875,2.28125 0.21875,2.0625 0,0.03125 -0.0312,0.03125 -2.28125,1.65625 -0.8125,0.84375 -0.0312,0.03125 -0.0625,-0.03125 -2.03125,-1.65625 -2.0625,1.4375 -2.03125,0 -0.0312,0 -2.28125,1.46875 -2.0625,1.03125 -0.0312,0 -0.0312,0 -2.0625,-0.625 -3.71875,0 -0.0312,0 -2.0625,0.625 -0.0312,0 -2.09375,-1.875 -2.25,-1.25 -0.0312,0 -2,0 -0.40625,2.03125 0,0.03125 0,2.0625 0,0.03125 -0.0312,0 -2.28125,1.25 -0.0312,0.03125 -2.25,0.78125 -0.0312,0.03125 -0.1875,0.375 0.21875,2.0625 0,0.03125 0,0.03125 -1.65625,2.03125 0,2.09375 -0.625,2.25 0,0.03125 1.4375,2.0625 0,0.03125 0,1.65625 0,0.03125 -0.81355,2.0625 0,0.03125 -0.0312,0 -1.875,2.09375 -1.8125,2.03125 1.8125,2.0625 0.0312,0 0.40625,2.3125 0.21875,2.0625 0,0.03125 0.40625,2.28125 0,0.03125 -1.03125,2.28125 -0.0312,0.03125 -0.0312,0 -2.0625,0.21875 0,-0.03125 -2.0625,1.0625 -2.28125,1.25 -0.0312,0 -2.09375,-0.21875 -0.0312,0 L 1.2,58.0752 l 0.46875,1.59375 -0.0312,0 1.0625,2.0625 0.8125,2.3125 1.03125,2.03125 2.03125,-0.8125 0.0312,0 2.09375,0.625 0.0312,0 0,0.03125 -0.40625,2.09375 1.4375,2.03125 0,0.03125 0.84375,2.28125 0.8125,2.09375 0.0312,0 0,2.09375 -0.0312,0.03125 -1.21875,2.25 0.40625,1.21875 0,0.03125 1.4375,1.65625 0.84375,2.0625 0,0.03125 1.84375,2.25 0.0312,0.03125 2.28125,1.65625 0.40625,0.625 2.28125,1.65625 0.0312,0 0,0.03125 0.8125,2.25 0,0.03125 1.875,2.0625 1.46875,2.0625 2.0625,1.6875 1.46875,2.09375 0.8125,2.0625 0.0312,0.0312 1.84375,0.8125 2.3125,1.65625 0,0.0312 1.03125,2.28125 0.21875,2.09375 0,0.0312 -0.625,2.0625 0.625,2.28125 0.625,1.625 0,0.0312 1.65625,2.0625 0,0.0312 0.84375,2.28125 0.84375,2.0625 0,0.0312 0.625,2.03125 0,0.0312 2.03125,0.8125 2.03125,-1.875 1.25,-2.28125 0.0312,-0.0625 0.0312,0.0625 0.0312,0.0625 1.65625,2.03125 0,0.0312 -0.40625,2.0625 0,0.0312 0,2.28125 0,0.0312 -1.25,2.0625 -0.0312,0 -1.65625,2.3125 0,0.0312 -0.0625,-0.0312 -2.03125,-0.84375 -0.0312,0 -2.25,1.875 0,0.0312 -0.0312,0 -2,0.1875 0.375,0.96875 0,0.0312 0.21875,2.0625 0.21875,2.3125 -0.625,2.09375 -0.625,2.0625 0,0.0312 0.1875,2.0625 0,2.90625 0.4375,2.28125 0.1875,2.09375 -0.625,2.03125 0,0.0625 0,0.0625 -0.0625,-0.0312 -2.0625,-1.21875 -2.03125,1.4375 -0.1875,2.03125 -0.0312,0.0625 -0.0625,-0.0312 -0.0312,-0.0312 -1.625,-0.5625 -2.25,1.03125 -2.0625,0.625 -0.0312,0 -0.15625,0.375 0,2.0625 0.40625,2.28125 0,0.0312 0,2.25 0,0.0312 0.8125,1.4375 0.0312,0 0.1875,2.28125 0,0.0312 0.84375,2.0625 1.25,2.0625 2.0625,2.09375 2.09375,2.0625 2.5,4.1875 1.03125,2.28125 2.28125,1.875 2.09375,1.65625 2.0625,1.875 2.0625,1.65625 0.0312,0 2.28125,1.03125 0,0.0312 0.0312,0 0.8125,2.28125 0,0.0312 1.03125,2.0625 2.28125,1.65625 0.0312,0 0,0.0312 0,2.0625 0,0.0312 1.4375,2.25 0,0.0312 0,3.3125 0,0.0312 0.4375,2.25 0,0.0312 0.625,2.0625 0.1875,2.09375 0,0.0312 -0.625,2.25 0.21875,1.0625 0,2.0625 0,0.0312 0,0.0312 -1.875,1.84375 0,0.0312 -0.625,2 0,0.0312 1.65625,2.0625 0,0.0312 0.21875,2.0625 0.40625,2.28125 1.25,2.0625 1.46875,2.09375 1.84375,2.0625 0.0312,0.0312 2.28125,1.65625 0,0.0312 -0.1875,2.28125 0.40625,4.15625 0.8125,2.0625 0,0.0312 0.4375,2.0625 0,0.0312 0.1875,2.25 2.03125,-0.21875 0.0937,0 -0.0312,0.0625 -0.625,2.03125 0,0.0312 1.25,2.0625 0,0.0312 -0.21875,2.0625 1.0625,2.0625 0.625,2.3125 0,0.0312 -1.0625,2.09375 -1.875,2.09375 -0.0312,0 -2.03125,0.625 0,2.03125 0,0.0312 -1.6875,2.28125 0.0312,0 -0.4375,2.28125 0,0.0312 -1.875,2.0625 -0.625,1.65625 -1.03125,2.09375 -1.46875,2.09375 -2.09375,2.09375 -1.03125,0.8125 0,0.0312 -2.28125,1 0,0.0312 -0.1875,2.03125 0,0.0312 -0.0312,0 -1.4375,2.09375 -0.0312,0 -2.0625,1.25 -1.65625,1.03125 -1.4375,2.25 0.40625,2.09375 0.625,2.0625 0,0.0312 0,0.0312 -0.4375,0.625 -1.25,2.0625 0.0312,0 -0.625,2.28125 -0.0312,0 0,0.0312 0,0.0312 -0.1875,1.1875 -0.4375,2.0625 0,0.0312 -0.8125,2.3125 -1.0625,2.0625 -1.25,2.28125 0,0.0312 0,0.15625 0,0.0312 -1,2.0625 -1.6875,2.09375 0,0.0312 -0.1875,2.21875 0.1875,2.125 0,0.0312 -1.40625,2.21875 1.21875,2.09375 0.0312,0.0625 -0.0625,0 -2.09375,1.40625 -0.1875,2.0625 0,0.0312 -1.0625,2.28125 0,0.0312 0,0.40625 0,0.0312 -1,2.0625 -0.875,2.03125 1.0625,2.28125 0,0.0312 0.8125,2.0625 0,0.0312 -2.0625,2.0625 -1.625,4.1875 -1.0625,2.28125 0,0.0312 0.625,2.03125 0,0.0312 -1.0625,2.28125 0,0.0312 0,2.03125 0.625,2.0625 0.625,2.125 0.625,2.25 0.625,2.125 2,1.59375 0.0312,0 2.0625,-0.375 0.625,-2.0625 0,-0.0312 -1.0625,-2.03125 -0.0312,-0.0625 0.0625,0 0.0625,0 2,-0.625 2.3125,-0.8125 2.03125,-0.25 0.0312,0 0.15625,-0.0312 -0.0937,0.0937 -0.0312,0.0312 -0.59375,0.5625 0,0.0312 0.625,2.0625 0,0.0312 2.09375,0.78125 0.0312,0 0,0.0312 0.625,2.0625 0,2.125 0.625,2.03125 0,0.0312 2,0.78125 0.0312,0 2.03125,-1.4375 0.0312,-0.0312 0.0312,0.0312 1.25,1.4375 1.4375,2.125 1.25,2.25 0,0.0312 0,0.0312 -0.8125,2.09375 0,0.0312 0.1875,2 2.25,0 2.0625,-0.1875 0.0312,0 2.125,1.4375 0.0312,0 0.8125,1.6875 0,0.0312 0.625,2.03125 0,0.0312 1.0625,2.28125 0,0.0312 -0.25,2.0625 2.0625,1.84375 0.0312,0 2,0 0.0312,0 0.78125,-2 0,-0.0312 0.0312,-0.0625 0.0312,0.0312 0.25,0.1875 0.0312,0 0,0.0312 0.59375,2.125 1.5625,-2.125 0.0312,0 0.0625,0.0312 -0.8125,2.25 -0.78125,2.09375 1.59375,2.03125 2,1.0625 0.0312,0 1.4375,-0.4375 0.0312,0 0.0937,-0.0312 -0.0312,0.0937 -0.0312,0.0312 -0.84375,1.84375 -0.625,2.03125 0,0.0312 0.25,2.0625 0,0.0312 1.4375,2.03125 2.28125,1.875 2.0625,1.6875 0.0312,0 2.0625,2.0625 1.0625,2.3125 0.4375,0.625 2.21875,1.25 0.0312,0 0,0.0312 0.8125,1.90625 1.1875,-1.9375 0,-0.0312 0.625,-2.03125 0,-0.0312 -0.21875,-2.25 0,-0.0312 0.4375,-1.65625 0,-0.0625 0.0625,0.0312 2.0625,0.40625 0.0312,0 1.25,1.25 0,0.0312 0.625,2.0625 0,0.0312 1.03125,1 1,0.40625 0.0312,0 2.28125,0.21875 2.09375,1.25 2.0625,0.84375 2.0625,-0.84375 0.0312,0 2.09375,0.84375 1.25,2.09375 0.0312,0 0,0.0312 0.40625,2.28125 2.25,1.625 2.03125,-1.03125 0.0312,-0.0312 0.0312,0.0312 2.0625,0.625 0.0312,0 0,0.0312 0.625,2.0625 0.625,2.3125 -0.1875,2.28125 -0.21875,2.09375 0,0.0312 -0.0312,0 -2.0625,1.875 -1.03125,2.0625 0,0.78125 0,0.0312 0.59375,1 0.0312,0.0312 2.25,1.03125 0.0312,0 2.03125,1.84375 2.03125,-1.625 0.625,-2.09375 0.0312,0 0,-0.0312 2.28125,-1.03125 0.0312,0 2.0625,-1.65625 0.0312,0 2.0625,-0.21875 0.40625,-0.1875 2.09375,-1.0625 0.0312,0 2.28125,1.6875 0.625,2.09375 0.375,0.59375 2.28125,-0.21875 2.0625,-0.40625 1.4375,-1.4375 1.03125,-2.0625 0.625,-2.09375 0.84375,-1.0625 2.0625,-1.65625 0.84375,-2.25 0,-2.25 -2.0625,-1.5 -2.125,-1.875 -2.21875,-2.03125 0,-0.0312 -2.09375,-1.21875 -0.0312,-0.0312 -1.625,-2.0625 -0.4375,-0.875 -1.25,-2.0625 -1.4375,-2.3125 -0.625,-1.25 -1.21875,-2.03125 -0.0312,-0.0312 -2.03125,-1.03125 -2.3125,-0.375 0,-0.0312 -2.03125,-1.25 -0.0312,0 -1.46875,1.25 0,0.0312 -2.25,0.8125 -2.3125,0.1875 -0.0312,0 -1.4375,0 -2.0625,-0.1875 0,-0.0312 -2.3125,-1.4375 -2.0625,-1.25 0,0.0312 -2.125,-0.625 -0.0312,0 0,-0.0312 -1.625,-2.125 -1.5,-2.25 -1.59375,-2 -1.625,2 -0.0312,0.0312 -0.0312,0 -2.0625,-0.4375 -0.0312,-0.0312 -1.875,-2.0625 -0.625,-2.3125 0,-0.0312 0,-0.15625 -2.03125,-1.03125 -0.0312,-0.0312 -1.6875,-2.0625 -1.25,-2.3125 -1.0625,-2.0625 0,-0.0312 -0.375,-2.3125 0,-2.0625 0,-0.0312 1.4375,-1.4375 0.0312,0 2.3125,-0.4375 0.0312,-0.0312 0.0312,0.0625 0.8125,2.0625 0.4375,2.125 0,0.0312 -1.46875,2 2.03125,0 0.0312,0 0.0312,0 1.8125,2.0625 0,0.0312 0,2.3125 0.4375,2.0625 0,2.0625 2.03125,1.03125 1.96875,1.15625 -1.15625,-2.15625 -1.25,-2.0625 -0.875,-2.0625 -0.8125,-2.3125 0,-0.0312 -0.8125,-4.125 -0.4375,-2.3125 -0.4375,-2.3125 -0.375,-2.0625 -0.4375,-1.65625 -0.625,-2.25 0,-0.0312 -0.375,-2.125 -0.4375,-2.25 -0.1875,-2.125 -0.4375,-2.25 -0.8125,-2.28125 -1,-1.9375 -0.40625,1.90625 0,0.0312 -0.375,0.4375 -0.0312,0.0312 -0.0312,0 -2.125,-1.25 -0.0312,-0.0312 -1,-2.125 -1.6875,-1.875 -1.25,-2.0625 0,-0.0312 -0.1875,-2.0625 -0.4375,-2.125 -0.1875,-2.0625 -0.25,-2.3125 0.25,-2.0625 -0.25,-2.0625 -1.25,-2.28125 0,-0.0312 -0.1875,-2.0625 -1.65625,-2.25 -1,0 -2.3125,-0.1875 -2.03125,1.40625 0,0.0312 -0.0312,0 -2.03125,-0.1875 -1.84375,2.03125 -0.0312,0.0312 -2.125,0.25 -0.8125,0.1875 -0.0312,0 -2.0625,-1.0625 0,-0.0312 -0.0312,0 -2.3125,-2.0625 -0.0312,-0.0312 0.0312,-0.0312 1.6875,-2.03125 -0.4375,-2.3125 -1.0625,-2.03125 -0.625,-2.125 -1,-2.25 -0.625,-2.125 0,-0.0312 -0.25,-1.25 0.625,-2.25 -0.1875,-2.125 0,-1.625 -0.1875,-2.3125 0.625,-2.0625 0,-0.0312 2.03125,-1.84375 -2.03125,-1.84375 -0.625,-2.3125 -0.0312,-0.0625 0.0625,0 2.03125,0 1.0625,-2.03125 -0.25,-2.125 0,-0.0312 1.0625,-2.25 1.0625,-2.125 1.875,-2.0625 1,-2.0625 1.0625,-2.28125 0.8125,-2.0625 0.25,-1.25 -0.25,-2.3125 0.25,-2.0625 0,-0.0312 0.0312,0 2.03125,-1.03125 -0.4375,-2.0625 0.25,-2.3125 0,-0.0312 1.25,-2.03125 0.5625,-2.0625 0.625,-2.125 0,-0.0312 1.25,-2.25 1.25,-2.125 1.6875,-2.03125 0,-0.0312 0.8125,-2.28125 0,-2.0625 0,-0.0312 1.25,-2.0625 2.125,-2.09375 0,-0.0312 0.8125,-2.21875 0,-0.0312 0.625,-0.59375 0,-2.3125 -0.1875,-2.0625 0,-0.0312 0.1875,-0.21875 0,-2.03125 0,-0.0312 -0.8125,-2.21875 0,-0.0312 0,-2.125 -0.4375,-2.0625 0,-0.4375 0.1875,-2.25 0.625,-2.3125 0,-0.0312 0.4375,-0.78125 0.8125,-2.125 0.4375,-2.0625 0,-0.0312 1.65625,-2.28125 -0.84375,-2.03125 -1.4375,-2.0625 -0.625,-0.875 -1.25,-2.25 -0.0312,-0.0312 0.0312,-0.0312 1.25,-1.0625 0.4375,-1.03125 0,-0.0312 2.0625,-1.875 0.0312,0 2.0625,-0.625 2.09375,-0.8125 1,-1.0625 0.0312,-0.0312 0.0312,0.0312 2.09375,0.875 0.0312,0 1.40625,-0.25 1.875,0 2.03125,-0.375 1.25,-2.28125 0.1875,-0.59375 0,-0.0312 0.0312,-0.15625 0.0625,0.15625 0,0.0312 0.84375,2 0.0312,0.0312 2.03125,0.84375 2.0625,0.375 1.5,0.25 0.625,0.1875 2.03125,0.4375 0.0312,0 2.25,-0.875 0.0312,0 0.125,-0.0625 -0.0625,0.125 -0.0312,0.0312 -0.40625,0.8125 0,0.0312 0.1875,2.03125 0,0.0312 -1.875,2.03125 0,0.0312 0.4375,2.28125 -0.1875,2.0625 0,0.0312 -0.4375,0.625 -0.625,2.0625 0,0.0312 1.25,2.03125 0,0.0312 0,0.0312 -1.6875,2.03125 0,0.0312 0.875,2.09375 0.1875,2.25 0,0.0312 -2.03125,2.09375 2,1.40625 1.84375,0.625 0.0312,0 2.03125,-0.625 2.0625,-0.1875 0.0312,0 2.3125,0.1875 1.0625,0.1875 2.25,0.625 2.09375,0.875 0.0312,0 2.03125,-0.875 2.0625,0 2.28125,-0.375 0.0312,0 2.03125,-1.5 0.0312,0 2.0625,-0.1875 0.0312,0 0.4375,0.1875 2.0625,1.6875 0.0312,0 1.0625,2.03125 1.625,-0.96875 0.0312,-0.0312 0.0312,0.0312 1.25,2.0625 1.1875,1 0.0312,0 0.78125,0 0.0312,0 0.0312,0 1.25,2.125 2.03125,2.0625 0.0312,0 2.03125,1.625 -0.25,-1.96875 -0.0312,-0.0937 0.0937,0.0625 0.0312,0.0312 2.0625,1.125 0.78125,-0.96875 0.0312,0.0312 0.0625,0.0312 -1.4375,2.0625 -0.84375,2.25 2.0625,0.625 1.25,0.625 2.0625,0.1875 0.0312,0 2,2 0.59375,-1.96875 -0.1875,-1.25 -0.0312,-0.0625 0.0937,0.0312 2.25,0.625 0.0312,0 1.25,2.3125 2.09375,1.875 0.0312,0 0,0.0312 0.375,1 0,2.09375 0,0.0312 1.5,2.21875 1.625,2.125 0.25,0.375 0,0.0312 0.625,2.125 0.0937,0.8125 0,-1.21875 0,-0.0312 -0.625,-2.0625 -1.46875,-2.0625 0,-0.0312 -0.8125,-2.28125 -0.84375,-2.0625 0,-0.0312 0,-1.21875 0,-0.0312 -1.25,-2.0625 -0.625,-2.09375 0,-0.0312 0.40625,-2.28125 0.21875,-2.0625 0,-0.0312 1.25,-2.09375 0.1875,-0.1875 -1.625,-2.03125 -0.0312,-0.0312 0,-0.21875 -2.0625,-2.25 -2.0625,-1.875 -2.09375,-0.8125 -0.0312,-0.0312 0,-0.0312 0,-2.0625 0,-0.0312 0.0312,0 0.1875,-0.40625 0,-2.0625 -0.40625,-2.09375 -0.4375,-2.0625 -0.40625,-2.28125 0,-0.0312 -0.40625,-0.8125 -1.65625,-2.0625 0,-0.0312 -0.625,-2.28125 -0.84375,-2.09375 0,-2.09375 0.21875,-0.625 -0.21875,-2.0625 -0.21875,-2.3125 0,-0.0312 0.0312,0 2.09375,-0.84375 2.09375,0 2.03125,-0.40625 -0.21875,-2.03125 0,-0.0312 0.21875,-0.625 0.0312,-0.0312 2.0625,-1.25 2.0625,-1 0,-0.0312 0.0312,0 0.59375,-1.625 0,-0.0312 0.84375,-1.21875 0.625,-2.09375 0,-0.0312 2.09375,-2.0625 1.21875,-1.03125 0,-0.40625 0,-0.0312 0.84375,-2.0625 0.21875,-1.4375 0,-0.0312 2.09375,-1.6875 0.625,-0.21875 0,0.0312 2.0625,-1.875 0.0312,0 0,-0.0312 2.0625,-1.03125 0.0312,0 0.1875,0 0.0312,0 1.625,-0.21875 0.0312,0 2.0625,-0.625 0.0312,0 2.0625,0 1.21875,-0.8125 0.0312,0 2.0625,-0.21875 0.0312,0 2.0625,-0.84375 2.0625,-0.625 0.0312,0 1.03125,0.21875 0.0312,0 2.25,1.65625 2.09375,0 0.0312,0 0,0.0312 2.0625,1.25 2.0625,-1.0625 0.0312,0 1.4375,0.625 2.0625,-0.84375 2.03125,-0.40625 0,-0.15625 0,-0.0312 0.0625,-0.0312 2.28125,-0.1875 0.0312,0 2.0625,0.8125 2.09375,0.21875 1.03125,0.21875 2.0625,-0.21875 2.0625,-0.8125 1.03125,-0.625 0.0312,-0.0312 2.09375,-0.40625 2.0625,0 0.0312,0 2.0625,0.625 1.6875,0.40625 1.65625,0.21875 0.625,0.21875 0,0.0312 0,2.28125 0,0.0312 1.25,2.03125 2.03125,0.1875 1.21875,-2.0625 1.4375,-1.40625 0.0312,-0.0312 0,-0.0312 1.25,-0.40625 2.09375,-1.03125 0,-0.0312 2.0625,-0.625 0,0.0312 2.28125,-2.09375 1.4375,-2.03125 0,-0.0312 -0.40625,-4.125 0,-0.0312 0,-2.28125 0,-0.0312 0.84375,-2.0625 0.40625,-2.0625 0,-0.0312 0.84375,-2.03125 0,-0.0312 -1.25,-2.03125 -2.28125,-1.875 -0.0312,-0.0312 0,-0.0312 0.21875,-1.4375 0,-0.0312 2.09375,-2.28125 1.03125,-2.0625 0,-0.0937 -0.125,0.125 0,0.0312 -2.09375,0.1875 -0.0625,0 0,-0.0625 0.40625,-2.0625 0,-0.0312 0.0312,0 2.25,-1.21875 0,-2.09375 0.84375,-2.0625 0.1875,-2.0625 0,-0.0312 -1,-2.25 -0.0312,-0.0312 -2.03125,-0.78125 -1.21875,-0.21875 -0.0312,0 -2.28125,-1.03125 0,-0.0312 -0.0312,0 -1.03125,-2.28125 0,-0.0312 -0.40625,-2.09375 0,-0.0312 2.25,-1.625 -2.21875,-0.78125 -2.09375,-0.40625 -2.0625,-0.21875 -0.0312,0 -2.28125,-1.0625 -2.09375,-1.03125 0,-0.0312 -0.84375,-2.28125 -0.625,-2.09375 -0.59375,-0.59375 -2.5,-2.09375 -0.0312,0 -1.4375,-2.90625 -2.5,-2.28125 0,-0.0312 0,-0.0312 0,-2.0625 0,-0.0312 0.625,-2.875 0,-0.0312 -0.4375,-2.28125 0.21875,-2.6875 -0.625,-2.09375 0,-0.84375 0.21875,-2.09375 1.4375,-3.125 0.21875,-1.4375 0.21875,-2.6875 0,-0.03125 -0.21875,-2.0625 -1.03125,-2.0625 -1.4375,-2.0625 -0.0312,0 -1.625,-1.46875 -2.09375,-1.03125 -2.09375,-1.25 -2.28125,-1.65625 0,-0.03125 -0.0312,0 -1.25,-2.28125 0.0312,0 -1.65625,-2.0625 -0.0312,-0.03125 -2.0625,-1.65625 -0.0312,0 -0.625,-1.875 0.0312,0 -1.25,-2.0625 0,-0.03125 -1.25,-1.25 -0.4375,-0.625 -1.25,-2.0625 0,-0.03125 -0.8125,-2.0625 -1.4375,-2.0625 -0.0312,-0.03125 -2.03125,-1.1875 -2.0625,1.21875 -0.0312,0 -0.0312,0 -2.03125,-1.46875 -0.0312,0 -2.25,0 -0.0312,0 -2.09375,-1.25 -2.0625,-0.8125 -2.0625,-0.4375 0,0.03125 -1.0625,0 0,-0.03125 -2.0625,-0.40625 -2.0625,0.40625 -1.8125,2.0625 1,2.03125 0.0312,0.0625 -0.0601,0.03215 -2.09375,0.625 -1.40625,2.25 0,0.03125 -0.0312,0 -1.84375,1.21875 -0.0312,0.03125 -0.59375,1.40625 0,0.03125 0,2.0625 0,0.03125 -0.84375,1.25 -0.0312,0.03125 -0.0312,-0.03125 -2.28125,-0.8125 -2.03125,0.8125 -2.09375,1.25 -2.0625,1.65625 -0.0312,0.03125 -0.40625,0 -0.0312,0 -0.15625,0.1875 -2.3125,1.46875 -0.0625,0.03125 0,-0.0625 -0.40625,-2.09375 -1.21905,-2.03125 -2.28125,0 -2.09375,-0.625 0,-0.03125 -2.09375,-1.4375 -2.28125,-1.46875 -2.09375,-1.875 -2.0625,-1.875 -0.1875,0 -1.625,0.625 -1.6875,2.0625 0,0.03125 -2.0625,2.0625 -0.0312,0.03125 -4.125,0 -0.84375,2.03125 -1.25,2.3125 -0.0312,0 -2.0625,0.65625 -1.84375,2 0,0.03125 0.1875,0.8125 0.0312,0.03125 -0.0312,0.03125 -2.125,1.65625 -2.0625,1.03125 -0.0312,0 -2.0625,1.25 -2.0625,1.4375 0,0.03125 -1.21875,2.28125 -1.0625,0.84375 -0.625,0.625 -0.625,0.40625 -0.0312,0 -2.09375,-1.03125 -1.65625,-1.46875 -2.0625,-0.40625 -0.0312,0 -0.0312,-0.03125 -0.8125,-1.4375 -0.0312,-0.03125 0.0312,-0.03125 1.4375,-2.0625 0.625,-2.09375 0.21875,-0.625 1.03125,-2.09375 0.84375,-2.0625 0,-0.03125 1.875,-2.28125 1.875,-2.0625 -0.625,-2.0625 0,-0.03125 0.625,-2.03125 0,-0.03125 -1.03125,-2.25 -0.0312,-0.03125 0.21875,-2.0625 -2.0625,-1.21875 0,-0.03125 -0.84375,-2.09375 0,-0.03125 1.46875,-2.09375 2.0625,-1.46875 1.65625,-2.03125 -0.1875,-2.09375 0.625,-2.28125 0,-2.09375 0.625,-2.09375 1.25,-2.0625 0.1875,-2.09375 -2.0625,-1.84375 0,-0.03125 0,-2.0625 0,-0.03125 -0.4375,-2.0625 -0.1875,-2.09375 -1.03125,-1.40625 -0.0312,-0.03125 0,-0.03125 0.4375,-2.28125 0,-0.03125 2.0625,-1.625 -0.78125,-2.03125 -2.0625,0.40625 -2.3125,0 -0.0312,0 0,-0.03125 0,-0.21875 -2.25,-1.1875 -2.0625,0 -2.0625,1.03125 -1.875,2.0625 0,0.03125 -0.0312,0 -2.09375,0 0,-0.03125 -2.0625,-1 -2.28125,1.625 0,0.03125 -0.0312,0 -0.1875,0 -0.0312,0 0,-0.03125 -2.0625,-1.03125 -0.0312,0 0,-0.03125 -0.84375,-2.0625 -1.25,-2.09375 -0.625,-2.09375 0,-0.03125 0.84375,-1.875 1.875,-2.28125 0.40625,-1.65625 0.84375,-2.09375 0.1875,-0.625 0.4375,-2.0625 0.40625,-2.0625 0,-0.03125 -0.15625,-0.15625 -0.0312,0 -1.40625,0.625 -0.0312,0 -0.0312,0 -2.0625,-1.6875 -0.0312,0 0,-0.03125 0,-0.375 0,-0.03125 -1.4375,-2.0625 -1.0625,-2.28125 0.0312,0 -0.84375,-1.03125 -2.21875,0.21875 -0.0312,0 -1,2.25 0,0.03125 -0.34375,0.5625 0.0312,0.21875 -0.125,0 0,-0.0625 -0.8125,1.34375 -0.0312,0.03125 -0.0312,0 -2.09375,-0.84375 -0.0312,0 0,-0.03125 0,-0.21875 -0.1875,-2.25 -0.15625,0 -0.0312,0 -0.0312,-0.03125 -0.1875,-0.375 -2.0625,-1.25 -0.0312,0 0,-0.03125 -1.25,-1.4375 z m 1.28125,314.03125 -0.71875,0.25 0.75,2.15625 0.0312,0 2.21875,0.25 -0.25,-2.03125 -2,-0.625 -0.0312,0 z m 2.03125,5.875 -2,0.375 -0.0312,0 -2,0 0,2.03125 0,0.0312 2.03125,2.1875 0.5625,-0.34375 1.0625,-2.09375 0.375,-2.1875 z m -51.90625,13.75 0,1.9375 2.15625,-1 -0.15625,-0.75 -0.0312,0 -1.96875,-0.1875 z m 1.65625,26.46875 -0.40625,0.71875 0,0.0312 -0.1875,2.28125 0,2.0625 0,0.0312 -0.625,2.28125 0,0.0312 0.625,2 0,0.0312 1.40625,1.96875 1.8125,-2.15625 0.1875,-2.125 0.4375,-2.03125 0,-0.0312 -0.875,-2.28125 -1.625,-2.0625 -0.75,-0.75 z m 6.65625,2.28125 0.1875,1.5625 0.625,2.03125 0,0.0312 1,2.125 0.15625,-2.125 0,-2.03125 -1.96875,-1.5937 z m 16.34375,12.6875 -1.90625,0.34375 1.9375,1.625 0.0312,0 0.125,0 -0.1875,-1.96875 z m -2.375,1.75 0.40625,1.90625 0,0.0312 1.71875,1.84375 -0.5625,-1.8125 -1.5625,-1.96875 z m 18.03125,25.71875 -0.375,0.1875 -0.0312,0.0312 -0.78125,2 0,0.0312 0.1875,2.25 1.96875,-0.25 -0.375,-2 0,-0.0312 -0.59375,-2.21875 z"
     id="rect4" />
  <path
     style="fill:#ffffff"
     d="m 10.98105,73.29395 0.4375,1.15625 0.0312,0 0,2.09375 -0.0312,0.03125 -1.21875,2.25 0.40625,1.21875 0,0.03125 1.4375,1.65625 0.84375,2.0625 0,0.03125 1.84375,2.25 0.0312,0.03125 2.28125,1.65625 0.40625,0.625 2.28125,1.65625 0.0312,0 0,0.03125 0.8125,2.25 0,0.03125 1.875,2.0625 1.46875,2.0625 2.0625,1.6875 1.46875,2.09375 0.8125,2.0625 0.0312,0.0312 1.84375,0.8125 2.3125,1.65625 0,0.0312 1.03125,2.28125 0.21875,2.09375 0,0.0312 -0.625,2.0625 0.625,2.28125 0.625,1.625 0,0.0312 1.65625,2.0625 0,0.0312 0.84375,2.28125 0.84375,2.0625 0,0.0312 0.625,2.03125 0,0.0312 2.03125,0.8125 2.03125,-1.875 1.25,-2.28125 0.0312,-0.0625 0.0312,0.0625 0.0312,0.0625 1.65625,2.03125 0,0.0312 -0.40625,2.0625 0,0.0312 0,2.28125 0,0.0312 -1.25,2.0625 -0.0312,0 -1.65625,2.3125 0,0.0312 -0.0625,-0.0312 -2.03125,-0.84375 -0.0312,0 -2.25,1.875 0,0.0312 -0.0312,0 -2,0.1875 0.375,0.96875 0,0.0312 0.21875,2.0625 0.21875,2.3125 -0.625,2.09375 -0.625,2.0625 0,0.0312 0.1875,2.0625 0,2.90625 0.4375,2.28125 0.1875,2.09375 -0.625,2.03125 0,0.0625 0,0.0625 -0.0625,-0.0312 -2.0625,-1.21875 -2.03125,1.4375 -0.1875,2.03125 -0.0312,0.0625 -0.0625,-0.0312 -0.0312,-0.0312 -1.625,-0.5625 -2.25,1.03125 -2.0625,0.625 -0.0312,0 -0.15625,0.375 0,2.0625 0.40625,2.28125 0,0.0312 0,2.25 0,0.0312 0.8125,1.4375 0.0312,0 0.1875,2.28125 0,0.0312 0.84375,2.0625 1.25,2.0625 2.0625,2.09375 2.09375,2.0625 2.5,4.1875 1.03125,2.28125 2.28125,1.875 2.09375,1.65625 2.0625,1.875 2.0625,1.65625 0.0312,0 2.28125,1.03125 0,0.0312 0.0312,0 0.8125,2.28125 0,0.0312 1.03125,2.0625 2.28125,1.65625 0.0312,0 0,0.0312 0,2.0625 0,0.0312 1.4375,2.25 0,0.0312 0,3.3125 0,0.0312 0.4375,2.25 0,0.0312 0.625,2.0625 0.1875,2.09375 0,0.0312 -0.625,2.25 0.21875,1.0625 0,2.0625 0,0.0312 0,0.0312 -1.875,1.84375 0,0.0312 -0.625,2 0,0.0312 1.65625,2.0625 0,0.0312 0.21875,2.0625 0.40625,2.28125 1.25,2.0625 1.46875,2.09375 1.84375,2.0625 0.0312,0.0312 2.28125,1.65625 0,0.0312 -0.1875,2.28125 0.40625,4.15625 0.8125,2.0625 0,0.0312 0.4375,2.0625 0,0.0312 0.1875,2.25 2.03125,-0.21875 0.0937,0 -0.0312,0.0625 -0.625,2.03125 0,0.0312 1.25,2.0625 0,0.0312 -0.21875,2.0625 1.0625,2.0625 0.625,2.3125 0,0.0312 -1.0625,2.09375 -1.875,2.09375 -0.0312,0 -2.03125,0.625 0,2.03125 0,0.0312 -1.6875,2.28125 0.0312,0 -0.4375,2.28125 0,0.0312 -1.875,2.0625 -0.625,1.65625 -1.03125,2.09375 -1.46875,2.09375 -2.09375,2.09375 -1.03125,0.8125 0,0.0312 -2.28125,1 0,0.0312 -0.1875,2.03125 0,0.0312 -0.0312,0 -1.4375,2.09375 -0.0312,0 -2.0625,1.25 -1.65625,1.03125 -1.4375,2.25 0.40625,2.09375 0.625,2.0625 0,0.0312 0,0.0312 -0.4375,0.625 -1.25,2.0625 0.0312,0 -0.625,2.28125 -0.0312,0 0,0.0312 0,0.0312 -0.1875,1.1875 -0.4375,2.0625 0,0.0312 -0.8125,2.3125 -1.0625,2.0625 -1.25,2.28125 0,0.0312 0,0.15625 0,0.0312 -1,2.0625 -1.6875,2.09375 0,0.0312 -0.1875,2.21875 0.1875,2.125 0,0.0312 -1.40625,2.21875 1.21875,2.09375 0.0312,0.0625 -0.0625,0 -2.09375,1.40625 -0.1875,2.0625 0,0.0312 -1.0625,2.28125 0,0.0312 0,0.40625 0,0.0312 -1,2.0625 -0.875,2.03125 1.0625,2.28125 0,0.0312 0.8125,2.0625 0,0.0312 -2.0625,2.0625 -1.625,4.1875 -1.0625,2.28125 0,0.0312 0.625,2.03125 0,0.0312 -1.0625,2.28125 0,0.0312 0,2.03125 0.625,2.0625 0.625,2.125 0.625,2.25 0.625,2.125 1.875,1.5 0.65625,0 1.5625,-0.28125 0.625,-2.0625 0,-0.0312 -1.0625,-2.03125 -0.0312,-0.0625 0.0625,0 0.0625,0 2,-0.625 2.3125,-0.8125 2.03125,-0.25 0.0312,0 0.15625,-0.0312 -0.0937,0.0937 -0.0312,0.0312 -0.59375,0.5625 0,0.0312 0.625,2.0625 0,0.0312 2.09375,0.78125 0.0312,0 0,0.0312 0.625,2.0625 0,0.5 43.65625,0 -0.0625,-0.25 -0.1875,-2.125 -0.4375,-2.25 -0.8125,-2.28125 -1,-1.9375 -0.40625,1.90625 0,0.0312 -0.375,0.4375 -0.0312,0.0312 -0.0312,0 -2.125,-1.25 -0.0312,-0.0312 -1,-2.125 -1.6875,-1.875 -1.25,-2.0625 0,-0.0312 -0.1875,-2.0625 -0.4375,-2.125 -0.1875,-2.0625 -0.25,-2.3125 0.25,-2.0625 -0.25,-2.0625 -1.25,-2.28125 0,-0.0312 -0.1875,-2.0625 -1.65625,-2.25 -1,0 -2.3125,-0.1875 -2.03125,1.40625 0,0.0312 -0.0312,0 -2.03125,-0.1875 -1.84375,2.03125 -0.0312,0.0312 -2.125,0.25 -0.8125,0.1875 -0.0312,0 -2.0625,-1.0625 0,-0.0312 -0.0312,0 -2.3125,-2.0625 -0.0312,-0.0312 0.0312,-0.0312 1.6875,-2.03125 -0.4375,-2.3125 -1.0625,-2.03125 -0.625,-2.125 -1,-2.25 -0.625,-2.125 0,-0.0312 -0.25,-1.25 0.625,-2.25 -0.1875,-2.125 0,-1.625 -0.1875,-2.3125 0.625,-2.0625 0,-0.0312 2.03125,-1.84375 -2.03125,-1.84375 -0.625,-2.3125 -0.0312,-0.0625 0.0625,0 2.03125,0 1.0625,-2.03125 -0.25,-2.125 0,-0.0312 1.0625,-2.25 1.0625,-2.125 1.875,-2.0625 1,-2.0625 1.0625,-2.28125 0.8125,-2.0625 0.25,-1.25 -0.25,-2.3125 0.25,-2.0625 0,-0.0312 0.0312,0 2.03125,-1.03125 -0.4375,-2.0625 0.25,-2.3125 0,-0.0312 1.25,-2.03125 0.5625,-2.0625 0.625,-2.125 0,-0.0312 1.25,-2.25 1.25,-2.125 1.6875,-2.03125 0,-0.0312 0.8125,-2.28125 0,-2.0625 0,-0.0312 1.25,-2.0625 2.125,-2.09375 0,-0.0312 0.8125,-2.21875 0,-0.0312 0.625,-0.59375 0,-2.3125 -0.1875,-2.0625 0,-0.0312 0.1875,-0.21875 0,-2.03125 0,-0.0312 -0.8125,-2.21875 0,-0.0312 0,-2.125 -0.4375,-2.0625 0,-0.4375 0.1875,-2.25 0.625,-2.3125 0,-0.0312 0.4375,-0.78125 0.8125,-2.125 0.4375,-2.0625 0,-0.0312 1.65625,-2.28125 -0.84375,-2.03125 -1.4375,-2.0625 -0.625,-0.875 -1.25,-2.25 -0.0312,-0.0312 0.0312,-0.0312 1.25,-1.0625 0.4375,-1.03125 0,-0.0312 2.0625,-1.875 0.0312,0 2.0625,-0.625 2.09375,-0.8125 1,-1.0625 0.0312,-0.0312 0.0312,0.0312 2.09375,0.875 0.0312,0 1.40625,-0.25 1.875,0 2.03125,-0.375 1.25,-2.28125 0.1875,-0.59375 0,-0.0312 0.0312,-0.15625 0.0625,0.15625 0,0.0312 0.84375,2 0.0312,0.0312 2.03125,0.84375 2.0625,0.375 1.5,0.25 0.625,0.1875 2.03125,0.4375 0.0312,0 2.25,-0.875 0.0312,0 0.125,-0.0625 -0.0625,0.125 -0.0312,0.0312 -0.40625,0.8125 0,0.0312 0.1875,2.03125 0,0.0312 -1.875,2.03125 0,0.0312 0.4375,2.28125 -0.1875,2.0625 0,0.0312 -0.4375,0.625 -0.625,2.0625 0,0.0312 1.25,2.03125 0,0.0312 0,0.0312 -1.6875,2.03125 0,0.0312 0.875,2.09375 0.1875,2.25 0,0.0312 -2.03125,2.09375 2,1.40625 1.84375,0.625 0.0312,0 2.03125,-0.625 2.0625,-0.1875 0.0312,0 2.3125,0.1875 1.0625,0.1875 2.25,0.625 2.09375,0.875 0.0312,0 2.03125,-0.875 2.0625,0 2.28125,-0.375 0.0312,0 2.03125,-1.5 0.0312,0 2.0625,-0.1875 0.0312,0 0.4375,0.1875 2.0625,1.6875 0.0312,0 1.0625,2.03125 1.625,-0.96875 0.0312,-0.0312 0.0312,0.0312 1.25,2.0625 1.1875,1 0.0312,0 0.78125,0 0.0312,0 0.0312,0 1.25,2.125 2.03125,2.0625 0.0312,0 2.03125,1.625 -0.25,-1.96875 -0.0312,-0.0937 0.0937,0.0625 0.0312,0.0312 2.0625,1.125 0.78125,-0.96875 0.0312,0.0312 0.0625,0.0312 -1.4375,2.0625 -0.84375,2.25 2.0625,0.625 1.25,0.625 2.0625,0.1875 0.0312,0 2,2 0.59375,-1.96875 -0.1875,-1.25 -0.0312,-0.0625 0.0937,0.0312 2.25,0.625 0.0312,0 1.25,2.3125 2.09375,1.875 0.0312,0 0,0.0312 0.375,1 0,2.09375 0,0.0312 1.5,2.21875 1.625,2.125 0.25,0.375 0,0.0312 0.625,2.125 0.0937,0.8125 0,-1.21875 0,-0.0312 -0.625,-2.0625 -1.46875,-2.0625 0,-0.0312 -0.8125,-2.28125 -0.84375,-2.0625 0,-0.0312 0,-1.21875 0,-0.0312 -1.25,-2.0625 -0.625,-2.09375 0,-0.0312 0.40625,-2.28125 0.21875,-2.0625 0,-0.0312 1.25,-2.09375 0.1875,-0.1875 -1.625,-2.03125 -0.0312,-0.0312 0,-0.21875 -2.0625,-2.25 -2.0625,-1.875 -2.09375,-0.8125 -0.0312,-0.0312 0,-0.0312 0,-2.0625 0,-0.0312 0.0312,0 0.1875,-0.40625 0,-2.0625 -0.40625,-2.09375 -0.4375,-2.0625 -0.40625,-2.28125 0,-0.0312 -0.40625,-0.8125 -1.65625,-2.0625 0,-0.0312 -0.625,-2.28125 -0.84375,-2.09375 0,-2.09375 0.21875,-0.625 -0.21875,-2.0625 -0.21875,-2.3125 0,-0.0312 0.0312,0 2.09375,-0.84375 2.09375,0 2.03125,-0.40625 -0.21875,-2.03125 0,-0.0312 0.21875,-0.625 0.0312,-0.0312 2.0625,-1.25 2.0625,-1 0,-0.0312 0.0312,0 0.59375,-1.625 0,-0.0312 0.84375,-1.21875 0.625,-2.09375 0,-0.0312 2.09375,-2.0625 1.21875,-1.03125 0,-0.40625 0,-0.0312 0.84375,-2.0625 0.21875,-1.4375 0,-0.0312 2.09375,-1.6875 0.625,-0.21875 0,0.0312 2.0625,-1.875 0.0312,0 0,-0.0312 2.0625,-1.03125 0.0312,0 0.1875,0 0.0312,0 1.625,-0.21875 0.0312,0 2.0625,-0.625 0.0312,0 2.0625,0 1.21875,-0.8125 0.0312,0 2.0625,-0.21875 0.0312,0 2.0625,-0.84375 2.0625,-0.625 0.0312,0 1.03125,0.21875 0.0312,0 2.25,1.65625 2.09375,0 0.0312,0 0,0.0312 2.0625,1.25 2.0625,-1.0625 0.0312,0 1.4375,0.625 2.0625,-0.84375 2.03125,-0.40625 0,-0.15625 0,-0.0312 0.0625,-0.0312 2.28125,-0.1875 0.0312,0 2.0625,0.8125 2.09375,0.21875 1.03125,0.21875 2.0625,-0.21875 2.0625,-0.8125 1.03125,-0.625 0.0312,-0.0312 2.09375,-0.40625 2.0625,0 0.0312,0 2.0625,0.625 1.6875,0.40625 1.65625,0.21875 0.625,0.21875 0,0.0312 0,2.28125 0,0.0312 1.25,2.03125 2.03125,0.1875 1.21875,-2.0625 1.4375,-1.40625 0.0312,-0.0312 0,-0.0312 1.25,-0.40625 2.09375,-1.03125 0,-0.0312 2.0625,-0.625 0,0.0312 2.28125,-2.09375 1.4375,-2.03125 0,-0.0312 -0.40625,-4.125 0,-0.0312 0,-2.28125 0,-0.0312 0.84375,-2.0625 0.40625,-2.0625 0,-0.0312 0.84375,-2.03125 0,-0.0312 -1.25,-2.03125 -2.28125,-1.875 -0.0312,-0.0312 0,-0.0312 0.21875,-1.4375 0,-0.0312 2.09375,-2.28125 1.03125,-2.0625 0,-0.0937 -0.125,0.125 0,0.0312 -2.09375,0.1875 -0.0625,0 0,-0.0625 0.40625,-2.0625 0,-0.0312 0.0312,0 2.25,-1.21875 0,-2.09375 0.84375,-2.0625 0.1875,-2.0625 0,-0.0312 -1,-2.25 -0.0312,-0.0312 -2.03125,-0.78125 -1.21875,-0.21875 -0.0312,0 -2.28125,-1.03125 0,-0.0312 -0.0312,0 -1.03125,-2.28125 0,-0.0312 -0.40625,-2.09375 0,-0.0312 2.25,-1.625 -2.21875,-0.78125 -2.09375,-0.40625 -2.0625,-0.21875 -0.0312,0 -2.28125,-1.0625 -2.09375,-1.03125 0,-0.0312 -0.84375,-2.28125 -0.625,-2.09375 -0.59375,-0.59375 -2.5,-2.09375 -0.0312,0 -1.4375,-2.90625 -2.5,-2.28125 0,-0.0312 0,-0.0312 0,-2.0625 0,-0.0312 0.625,-2.875 0,-0.0312 -0.4375,-2.28125 0.21875,-2.6875 -0.625,-2.09375 0,-0.84375 0.21875,-2.09375 1.4375,-3.125 0.21875,-1.4375 0.21875,-2.6875 0,-0.03125 -0.21875,-2.0625 -1.03125,-2.0625 -1.4375,-2.0625 -0.0312,0 -1.625,-1.46875 -2.09375,-1.03125 -2.09375,-1.25 -2.28125,-1.65625 0,-0.03125 -0.0312,0 -1.25,-2.28125 0.0312,0 -1.65625,-2.0625 -0.0312,-0.03125 -2.0625,-1.65625 -0.0312,0 -0.625,-1.875 0.0312,0 -1.25,-2.0625 0,-0.03125 -1.1875,-1.1875 -30.78125,0 0,0.96875 0,0.03125 -0.84375,1.25 -0.0312,0.03125 -0.0312,-0.03125 -2.28125,-0.8125 -2.03125,0.8125 -2.09375,1.25 -2.0625,1.65625 -0.0312,0.03125 -0.40625,0 -0.0312,0 -0.15625,0.1875 -2.3125,1.46875 -0.0625,0.03125 0,-0.0625 -0.40625,-2.09375 -1.21735,-2.03075 -2.28125,0 -2.09375,-0.625 0,-0.03125 -2.09375,-1.4375 -0.9375,-0.59375 -10.90625,0 -0.15625,0.15625 -0.0312,0.03125 -4.125,0 -0.84375,2.03125 -1.25,2.3125 -0.0312,0 -2.0625,0.65625 -1.84375,2 0,0.03125 0.1875,0.8125 0.0312,0.03125 -0.0312,0.03125 -2.125,1.65625 -2.0625,1.03125 -0.0312,0 -2.0625,1.25 -2.0625,1.4375 0,0.03125 -1.21875,2.28125 -1.0625,0.84375 -0.625,0.625 -0.625,0.40625 -0.0312,0 -2.09375,-1.03125 -1.65625,-1.46875 -2.0625,-0.40625 -0.0312,0 -0.0312,-0.03125 -0.8125,-1.4375 -0.0312,-0.03125 0.0312,-0.03125 1.4375,-2.0625 0.625,-2.09375 0.21875,-0.625 1.03125,-2.09375 0.84375,-2.0625 0,-0.03125 1.875,-2.28125 1.78125,-1.96875 -98.5,0 z m 64.90625,241.9375 -0.71875,0.25 0.75,2.15625 0.0312,0 2.21875,0.25 -0.25,-2.03125 -2,-0.625 -0.0312,0 z m 2.03125,5.875 -2,0.375 -0.0312,0 -2,0 0,2.03125 0,0.0312 2.03125,2.1875 0.5625,-0.34375 1.0625,-2.09375 0.375,-2.1875 z m -51.90625,13.75 0,1.9375 2.15625,-1 -0.15625,-0.75 -0.0312,0 -1.96875,-0.1875 z m 1.65625,26.46875 -0.40625,0.71875 0,0.0312 0,0.0312 1.1875,0 -0.0312,-0.0312 -0.75,-0.75 z"
     id="rect6" />
  <path
     style="fill:#00247d;stroke:#00247d;stroke-width:2.4000001;stroke-miterlimit:4;stroke-opacity:1;stroke-dasharray:none"
     d="m 35.35605,145.5127 0,1.625 0.4375,2.28125 0.1875,2.09375 -0.625,2.03125 0,0.0625 0,0.0625 -0.0625,-0.0312 -2.0625,-1.21875 -2.03125,1.4375 -0.1875,2.03125 -0.0312,0.0625 -0.0625,-0.0312 -0.0312,-0.0312 -1.625,-0.5625 -2.25,1.03125 -2.0625,0.625 -0.0312,0 -0.15625,0.375 0,2.0625 0.40625,2.28125 0,0.0312 0,2.25 0,0.0312 0.8125,1.4375 0.0312,0 0.1875,2.28125 0,0.0312 0.84375,2.0625 1.25,2.0625 2.0625,2.09375 2.09375,2.0625 2.5,4.1875 1.03125,2.28125 2.28125,1.875 2.09375,1.65625 2.0625,1.875 2.0625,1.65625 0.0312,0 2.28125,1.03125 0,0.0312 0.0312,0 0.8125,2.28125 0,0.0312 1.03125,2.0625 2.28125,1.65625 0.0312,0 0,0.0312 0,2.0625 0,0.0312 1.4375,2.25 0,0.0312 0,3.3125 0,0.0312 0.4375,2.25 0,0.0312 0.625,2.0625 0.1875,2.09375 0,0.0312 -0.625,2.25 0.21875,1.0625 0,2.0625 0,0.0312 0,0.0312 -1.875,1.84375 0,0.0312 -0.625,2 0,0.0312 1.65625,2.0625 0,0.0312 0.21875,2.0625 0.40625,2.28125 1.25,2.0625 1.46875,2.09375 1.84375,2.0625 0.0312,0.0312 2.28125,1.65625 0,0.0312 -0.1875,2.28125 0.40625,4.15625 0.8125,2.0625 0,0.0312 0.4375,2.0625 0,0.0312 0.1875,2.25 2.03125,-0.21875 0.0937,0 -0.0312,0.0625 -0.625,2.03125 0,0.0312 1.25,2.0625 0,0.0312 -0.21875,2.0625 1.0625,2.0625 0.625,2.3125 0,0.0312 -1.0625,2.09375 -1.875,2.09375 -0.0312,0 -2.03125,0.625 0,2.03125 0,0.0312 -1.6875,2.28125 0.0312,0 -0.4375,2.28125 0,0.0312 -1.875,2.0625 -0.625,1.65625 -1.03125,2.09375 -1.46875,2.09375 -2.09375,2.09375 -1.03125,0.8125 0,0.0312 -2.28125,1 0,0.0312 -0.1875,2.03125 0,0.0312 -0.0312,0 -1.4375,2.09375 -0.0312,0 -2.0625,1.25 -1.65625,1.03125 -1.40625,2.1875 15.46875,0 1.6875,-1.84375 1,-2.0625 1.0625,-2.28125 0.8125,-2.0625 0.25,-1.25 -0.25,-2.3125 0.25,-2.0625 0,-0.0312 0.0312,0 2.03125,-1.03125 -0.4375,-2.0625 0.25,-2.3125 0,-0.0312 1.25,-2.03125 0.5625,-2.0625 0.625,-2.125 0,-0.0312 1.25,-2.25 1.25,-2.125 1.6875,-2.03125 0,-0.0312 0.8125,-2.28125 0,-2.0625 0,-0.0312 1.25,-2.0625 2.125,-2.09375 0,-0.0312 0.8125,-2.21875 0,-0.0312 0.625,-0.59375 0,-2.3125 -0.1875,-2.0625 0,-0.0312 0.1875,-0.21875 0,-2.03125 0,-0.0312 -0.8125,-2.21875 0,-0.0312 0,-2.125 -0.4375,-2.0625 0,-0.4375 0.1875,-2.25 0.625,-2.3125 0,-0.0312 0.4375,-0.78125 0.8125,-2.125 0.4375,-2.0625 0,-0.0312 1.65625,-2.28125 -0.84375,-2.03125 -1.4375,-2.0625 -0.625,-0.875 -1.25,-2.25 -0.0312,-0.0312 0.0312,-0.0312 1.25,-1.0625 0.4375,-1.03125 0,-0.0312 2.0625,-1.875 0.0312,0 2.0625,-0.625 2.09375,-0.8125 1,-1.0625 0.0312,-0.0312 0.0312,0.0312 2.09375,0.875 0.0312,0 1.40625,-0.25 1.875,0 2.03125,-0.375 1.25,-2.28125 0.1875,-0.59375 0,-0.0312 0.0312,-0.15625 0.0625,0.15625 0,0.0312 0.84375,2 0.0312,0.0312 2.03125,0.84375 2.0625,0.375 1.5,0.25 0.625,0.1875 2.03125,0.4375 0.0312,0 2.25,-0.875 0.0312,0 0.125,-0.0625 -0.0625,0.125 -0.0312,0.0312 -0.40625,0.8125 0,0.0312 0.1875,2.03125 0,0.0312 -1.875,2.03125 0,0.0312 0.4375,2.28125 -0.1875,2.0625 0,0.0312 -0.4375,0.625 -0.625,2.0625 0,0.0312 1.25,2.03125 0,0.0312 0,0.0312 -1.6875,2.03125 0,0.0312 0.875,2.09375 0.1875,2.25 0,0.0312 -2.03125,2.09375 2,1.40625 1.84375,0.625 0.0312,0 2.03125,-0.625 2.0625,-0.1875 0.0312,0 2.3125,0.1875 1.0625,0.1875 2.25,0.625 2.09375,0.875 0.0312,0 2.03125,-0.875 2.0625,0 2.28125,-0.375 0.0312,0 2.03125,-1.5 0.0312,0 2.0625,-0.1875 0.0312,0 0.4375,0.1875 2.0625,1.6875 0.0312,0 1.0625,2.03125 1.625,-0.96875 0.0312,-0.0312 0.0312,0.0312 1.25,2.0625 1.1875,1 0.0312,0 0.78125,0 0.0312,0 0.0312,0 1.25,2.125 2.03125,2.0625 0.0312,0 2.03125,1.625 -0.25,-1.96875 -0.0312,-0.0937 0.0937,0.0625 0.0312,0.0312 2.0625,1.125 0.78125,-0.96875 0.0312,0.0312 0.0625,0.0312 -1.4375,2.0625 -0.84375,2.25 2.0625,0.625 1.25,0.625 2.0625,0.1875 0.0312,0 2,2 0.59375,-1.96875 -0.1875,-1.25 -0.0312,-0.0625 0.0937,0.0312 2.25,0.625 0.0312,0 1.25,2.3125 2.09375,1.875 0.0312,0 0,0.0312 0.375,1 0,2.09375 0,0.0312 1.5,2.21875 1.625,2.125 0.25,0.375 0,0.0312 0.625,2.125 0.0937,0.8125 0,-1.21875 0,-0.0312 -0.625,-2.0625 -1.46875,-2.0625 0,-0.0312 -0.8125,-2.28125 -0.84375,-2.0625 0,-0.0312 0,-1.21875 0,-0.0312 -1.25,-2.0625 -0.625,-2.09375 0,-0.0312 0.40625,-2.28125 0.21875,-2.0625 0,-0.0312 1.25,-2.09375 0.1875,-0.1875 -1.625,-2.03125 -0.0312,-0.0312 0,-0.21875 -2.0625,-2.25 -2.0625,-1.875 -2.09375,-0.8125 -0.0312,-0.0312 0,-0.0312 0,-2.0625 0,-0.0312 0.0312,0 0.1875,-0.40625 0,-2.0625 -0.40625,-2.09375 -0.4375,-2.0625 -0.40625,-2.28125 0,-0.0312 -0.40625,-0.8125 -1.65625,-2.0625 0,-0.0312 -0.625,-2.28125 -0.84375,-2.09375 0,-2.09375 0.21875,-0.625 -0.21875,-2.0625 -0.21875,-2.3125 0,-0.0312 0.0312,0 2.09375,-0.84375 2.09375,0 2.03125,-0.40625 -0.21875,-2.03125 0,-0.0312 0.21875,-0.625 0.0312,-0.0312 2.0625,-1.25 2.0625,-1 0,-0.0312 0.0312,0 0.59375,-1.625 0,-0.0312 0.84375,-1.21875 0.625,-2.09375 0,-0.0312 2.09375,-2.0625 1.21875,-1.03125 0,-0.40625 0,-0.0312 0.84375,-2.0625 0.21875,-1.4375 0,-0.0312 2.09375,-1.6875 0.625,-0.21875 0,0.0312 2.0625,-1.875 0.0312,0 0,-0.0312 2.0625,-1.03125 0.0312,0 0.1875,0 0.0312,0 1.625,-0.21875 0.0312,0 2.0625,-0.625 0.0312,0 2.0625,0 1.21875,-0.8125 0.0312,0 2.0625,-0.21875 0.0312,0 2.0625,-0.84375 2.0625,-0.625 0.0312,0 1.03125,0.21875 0.0312,0 2.25,1.65625 2.09375,0 0.0312,0 0,0.0312 2.0625,1.25 2.0625,-1.0625 0.0312,0 1.4375,0.625 2.0625,-0.84375 2.03125,-0.40625 0,-0.15625 0,-0.0312 0.0625,-0.0312 2.28125,-0.1875 0.0312,0 2.0625,0.8125 2.09375,0.21875 1.03125,0.21875 2.0625,-0.21875 2.0625,-0.8125 1.03125,-0.625 0.0312,-0.0312 2.09375,-0.40625 2.0625,0 0.0312,0 2.0625,0.625 1.6875,0.40625 1.65625,0.21875 0.625,0.21875 0,0.0312 0,2.28125 0,0.0312 1.25,2.03125 2.03125,0.1875 1.21875,-2.0625 1.4375,-1.40625 0.0312,-0.0312 0,-0.0312 1.25,-0.40625 2.09375,-1.03125 0,-0.0312 2.0625,-0.625 0,0.0312 2.28125,-2.09375 1.4375,-2.03125 0,-0.0312 -0.40625,-4.125 0,-0.0312 0,-2.28125 0,-0.0312 0.84375,-2.0625 0.40625,-2.0625 0,-0.0312 0.84375,-2.03125 0,-0.0312 -1.25,-2.03125 -2.28125,-1.875 -0.0312,-0.0312 0,-0.0312 0.21875,-1.4375 0,-0.0312 2.09375,-2.28125 1.03125,-2.0625 0,-0.0937 -0.125,0.125 0,0.0312 -2.09375,0.1875 -0.0625,0 0,-0.0625 0.40625,-2.0625 0,-0.0312 0.0312,0 2.25,-1.21875 0,-2.09375 0.84375,-2.0625 0.125,-1.21875 -200.21875,0 z"
     id="rect8" />
</svg>
